<mxfile host="app.diagrams.net" modified="2023-12-13T07:14:12.921Z" agent="Mozilla/5.0 (Macintosh; Intel Mac OS X 10_15_7) AppleWebKit/537.36 (KHTML, like Gecko) Chrome/119.0.0.0 Safari/537.36" version="22.1.8" etag="9M_ZyRB1ZEFKITE5QQzs" type="github">
  <diagram name="第 1 页" id="m5TeLOAHBgvewvhGZ1Ec">
    <mxGraphModel>
      <root>
        <mxCell id="0" />
        <mxCell id="1" parent="0" />
      </root>
    </mxGraphModel>
  </diagram>
</mxfile>
